HIERARCHY
ROOT Hips
{
	OFFSET 0.000000 83.214638 0.000000
	CHANNELS 6 Xposition Yposition Zposition Xrotation Yrotation Zrotation
	JOINT Pelvis
	{
		OFFSET 0.000000 0.000000 0.000000
		CHANNELS 3 Xrotation Yrotation Zrotation
		JOINT LeftUpLeg
		{
			OFFSET 8.479700 -4.795502 -0.379100
			CHANNELS 3 Xrotation Yrotation Zrotation
			JOINT LeftLeg
			{
				OFFSET 0.024144 -32.555107 0.112900
				CHANNELS 3 Xrotation Yrotation Zrotation
				JOINT LeftFoot
				{
					OFFSET -0.024144 -32.638630 -3.012600
					CHANNELS 3 Xrotation Yrotation Zrotation
					JOINT LeftToeBase
					{
						OFFSET 0.970200 -13.225400 11.864200
						CHANNELS 3 Xrotation Yrotation Zrotation
						End Site
						{
							OFFSET 0.000000 12.319262 0.000000
						}
					}
					JOINT LFootTongue
					{
						OFFSET 1.142400 -1.059800 6.665200
						CHANNELS 3 Xrotation Yrotation Zrotation
						End Site
						{
							OFFSET 0.000000 12.319262 0.000000
						}
					}
				}
				JOINT LeftPantLeg
				{
					OFFSET 0.918482 -16.533964 -2.284700
					CHANNELS 3 Xrotation Yrotation Zrotation
					End Site
					{
						OFFSET 0.350399 24.744368 0.000000
					}
				}
			}
		}
		JOINT RightUpLeg
		{
			OFFSET -8.479700 -4.795502 -0.379100
			CHANNELS 3 Xrotation Yrotation Zrotation
			JOINT RightLeg
			{
				OFFSET -0.023144 -32.555092 0.112900
				CHANNELS 3 Xrotation Yrotation Zrotation
				JOINT RightFoot
				{
					OFFSET 0.023144 -32.638641 -3.012700
					CHANNELS 3 Xrotation Yrotation Zrotation
					JOINT RightToeBase
					{
						OFFSET -0.970200 -13.225400 11.864200
						CHANNELS 3 Xrotation Yrotation Zrotation
						End Site
						{
							OFFSET 0.000000 12.319244 0.000000
						}
					}
					JOINT RFootTongue
					{
						OFFSET -1.142200 -1.059800 6.665200
						CHANNELS 3 Xrotation Yrotation Zrotation
						End Site
						{
							OFFSET 0.000000 12.319243 0.000000
						}
					}
				}
				JOINT RightPantLeg
				{
					OFFSET -0.919482 -16.533978 -2.284800
					CHANNELS 3 Xrotation Yrotation Zrotation
					End Site
					{
						OFFSET -0.350400 24.744419 0.000000
					}
				}
			}
		}
	}
	JOINT Spine
	{
		OFFSET 0.000000 7.722000 1.166200
		CHANNELS 3 Xrotation Yrotation Zrotation
		JOINT Spine1
		{
			OFFSET 0.000000 12.024101 0.248800
			CHANNELS 3 Xrotation Yrotation Zrotation
			JOINT Spine2
			{
				OFFSET 0.000000 11.502998 -0.491200
				CHANNELS 3 Xrotation Yrotation Zrotation
				JOINT Neck
				{
					OFFSET 0.000000 18.430702 -3.123100
					CHANNELS 3 Xrotation Yrotation Zrotation
					JOINT Head
					{
						OFFSET 0.000000 9.051102 1.034000
						CHANNELS 3 Xrotation Yrotation Zrotation
						JOINT HairB
						{
							OFFSET 0.208400 24.786102 24.822300
							CHANNELS 3 Xrotation Yrotation Zrotation
							End Site
							{
								OFFSET 0.000000 32.263779 0.000000
							}
						}
						JOINT HairA
						{
							OFFSET -7.081100 24.428299 23.196600
							CHANNELS 3 Xrotation Yrotation Zrotation
							End Site
							{
								OFFSET 0.000000 32.263779 0.000000
							}
						}
						JOINT Hat
						{
							OFFSET 16.728800 15.048294 -15.439601
							CHANNELS 3 Xrotation Yrotation Zrotation
							End Site
							{
								OFFSET 0.000000 32.263779 0.000000
							}
						}
					}
				}
				JOINT LeftShoulder
				{
					OFFSET 6.197800 13.665199 -4.064700
					CHANNELS 3 Xrotation Yrotation Zrotation
					JOINT LeftArm
					{
						OFFSET 7.778100 -0.187103 -1.709300
						CHANNELS 3 Xrotation Yrotation Zrotation
						JOINT LeftForeArm
						{
							OFFSET 22.049376 0.000000 0.000000
							CHANNELS 3 Xrotation Yrotation Zrotation
							JOINT LeftHand
							{
								OFFSET 23.009392 0.000000 0.000000
								CHANNELS 3 Xrotation Yrotation Zrotation
								JOINT LeftHandThumb1
								{
									OFFSET 3.507191 -2.063065 3.133727
									CHANNELS 3 Xrotation Yrotation Zrotation
									JOINT LeftHandThumb2
									{
										OFFSET 3.101337 -1.790558 1.790558
										CHANNELS 3 Xrotation Yrotation Zrotation
										JOINT LeftHandThumb3
										{
											OFFSET 3.058640 -1.765907 1.765906
											CHANNELS 3 Xrotation Yrotation Zrotation
											End Site
											{
												OFFSET -0.415260 3.926476 -0.049563
											}
										}
									}
								}
								JOINT LeftHandIndex1
								{
									OFFSET 11.334419 -0.901459 3.706815
									CHANNELS 3 Xrotation Yrotation Zrotation
									JOINT LeftHandIndex2
									{
										OFFSET 3.283112 0.000000 0.000000
										CHANNELS 3 Xrotation Yrotation Zrotation
										JOINT LeftHandIndex3
										{
											OFFSET 3.323853 0.000000 0.000000
											CHANNELS 3 Xrotation Yrotation Zrotation
											End Site
											{
												OFFSET -1.135597 3.097809 0.402452
											}
										}
									}
								}
								JOINT LeftHandMiddle1
								{
									OFFSET 11.335861 0.000000 0.000000
									CHANNELS 3 Xrotation Yrotation Zrotation
									JOINT LeftHandMiddle2
									{
										OFFSET 3.410492 0.000000 0.000000
										CHANNELS 3 Xrotation Yrotation Zrotation
										JOINT LeftHandMiddle3
										{
											OFFSET 3.312172 0.000000 0.000000
											CHANNELS 3 Xrotation Yrotation Zrotation
											End Site
											{
												OFFSET -1.150200 3.080154 0.400270
											}
										}
									}
								}
								JOINT LeftHandRing1
								{
									OFFSET 11.514786 -0.013176 -3.003090
									CHANNELS 3 Xrotation Yrotation Zrotation
									JOINT LeftHandRing2
									{
										OFFSET 3.053307 0.000000 0.000000
										CHANNELS 3 Xrotation Yrotation Zrotation
										JOINT LeftHandRing3
										{
											OFFSET 3.295807 0.000000 0.000000
											CHANNELS 3 Xrotation Yrotation Zrotation
											End Site
											{
												OFFSET -1.281006 3.013344 0.375733
											}
										}
									}
								}
								JOINT LeftHandPinky1
								{
									OFFSET 10.518692 -0.960396 -5.730441
									CHANNELS 3 Xrotation Yrotation Zrotation
									JOINT LeftHandPinky2
									{
										OFFSET 2.861649 0.000000 0.000000
										CHANNELS 3 Xrotation Yrotation Zrotation
										JOINT LeftHandPinky3
										{
											OFFSET 2.863380 0.000000 0.000000
											CHANNELS 3 Xrotation Yrotation Zrotation
											End Site
											{
												OFFSET -0.843597 2.711159 0.369971
											}
										}
									}
								}
							}
							JOINT LSleeve
							{
								OFFSET 6.676277 -0.344902 -1.011730
								CHANNELS 3 Xrotation Yrotation Zrotation
								End Site
								{
									OFFSET 0.000000 14.885353 0.000000
								}
							}
						}
					}
				}
				JOINT RightShoulder
				{
					OFFSET -6.197800 13.665199 -4.064700
					CHANNELS 3 Xrotation Yrotation Zrotation
					JOINT RightArm
					{
						OFFSET -7.778100 -0.187103 -1.709300
						CHANNELS 3 Xrotation Yrotation Zrotation
						JOINT RightForeArm
						{
							OFFSET -22.049376 0.000000 0.000000
							CHANNELS 3 Xrotation Yrotation Zrotation
							JOINT RightHand
							{
								OFFSET -23.009392 0.000000 0.000000
								CHANNELS 3 Xrotation Yrotation Zrotation
								JOINT RightHandThumb1
								{
									OFFSET -3.507191 -2.063065 3.133727
									CHANNELS 3 Xrotation Yrotation Zrotation
									JOINT RightHandThumb2
									{
										OFFSET -3.101337 -1.790558 1.790558
										CHANNELS 3 Xrotation Yrotation Zrotation
										JOINT RightHandThumb3
										{
											OFFSET -3.058640 -1.765907 1.765906
											CHANNELS 3 Xrotation Yrotation Zrotation
											End Site
											{
												OFFSET 0.415260 3.926476 -0.049563
											}
										}
									}
								}
								JOINT RightHandIndex1
								{
									OFFSET -11.334419 -0.901459 3.706815
									CHANNELS 3 Xrotation Yrotation Zrotation
									JOINT RightHandIndex2
									{
										OFFSET -3.283112 0.000000 0.000000
										CHANNELS 3 Xrotation Yrotation Zrotation
										JOINT RightHandIndex3
										{
											OFFSET -3.323853 0.000000 0.000000
											CHANNELS 3 Xrotation Yrotation Zrotation
											End Site
											{
												OFFSET 1.135597 3.097809 0.402452
											}
										}
									}
								}
								JOINT RightHandMiddle1
								{
									OFFSET -11.335861 0.000000 0.000000
									CHANNELS 3 Xrotation Yrotation Zrotation
									JOINT RightHandMiddle2
									{
										OFFSET -3.410492 0.000000 0.000000
										CHANNELS 3 Xrotation Yrotation Zrotation
										JOINT RightHandMiddle3
										{
											OFFSET -3.312172 0.000000 0.000000
											CHANNELS 3 Xrotation Yrotation Zrotation
											End Site
											{
												OFFSET 1.150200 3.080154 0.400270
											}
										}
									}
								}
								JOINT RightHandRing1
								{
									OFFSET -11.514786 -0.013176 -3.003090
									CHANNELS 3 Xrotation Yrotation Zrotation
									JOINT RightHandRing2
									{
										OFFSET -3.053307 0.000000 0.000000
										CHANNELS 3 Xrotation Yrotation Zrotation
										JOINT RightHandRing3
										{
											OFFSET -3.295807 0.000000 0.000000
											CHANNELS 3 Xrotation Yrotation Zrotation
											End Site
											{
												OFFSET 1.281006 3.013344 0.375733
											}
										}
									}
								}
								JOINT RightHandPinky1
								{
									OFFSET -10.518692 -0.960396 -5.730441
									CHANNELS 3 Xrotation Yrotation Zrotation
									JOINT RightHandPinky2
									{
										OFFSET -2.861649 0.000000 0.000000
										CHANNELS 3 Xrotation Yrotation Zrotation
										JOINT RightHandPinky3
										{
											OFFSET -2.863380 0.000000 0.000000
											CHANNELS 3 Xrotation Yrotation Zrotation
											End Site
											{
												OFFSET 0.843597 2.711159 0.369971
											}
										}
									}
								}
							}
							JOINT RSleeve
							{
								OFFSET -6.676277 -0.344902 -1.011730
								CHANNELS 3 Xrotation Yrotation Zrotation
								End Site
								{
									OFFSET 0.000000 14.885353 0.000000
								}
							}
						}
					}
				}
				JOINT Backpack
				{
					OFFSET 0.000000 -2.471497 36.677502
					CHANNELS 3 Xrotation Yrotation Zrotation
					End Site
					{
						OFFSET 0.000000 20.427315 0.000000
					}
				}
				JOINT Hood
				{
					OFFSET 0.000000 18.754097 -10.431000
					CHANNELS 3 Xrotation Yrotation Zrotation
					JOINT Hood1
					{
						OFFSET 0.000000 -5.011002 -7.685901
						CHANNELS 3 Xrotation Yrotation Zrotation
						End Site
						{
							OFFSET 0.000000 9.175140 0.000000
						}
					}
				}
				JOINT LHoodieString
				{
					OFFSET 5.250500 16.397697 3.089900
					CHANNELS 3 Xrotation Yrotation Zrotation
					JOINT LHoodieString1
					{
						OFFSET 0.257700 -6.364304 3.694600
						CHANNELS 3 Xrotation Yrotation Zrotation
						JOINT LHoodieString2
						{
							OFFSET 0.000000 -9.643799 2.679100
							CHANNELS 3 Xrotation Yrotation Zrotation
							End Site
							{
								OFFSET 0.000000 10.009018 0.000000
							}
						}
					}
				}
				JOINT RHoodieString
				{
					OFFSET -5.250500 16.397697 3.089900
					CHANNELS 3 Xrotation Yrotation Zrotation
					JOINT RHoodieString1
					{
						OFFSET -0.257700 -6.364304 3.694600
						CHANNELS 3 Xrotation Yrotation Zrotation
						JOINT RHoodieString2
						{
							OFFSET 0.000000 -9.643799 2.679100
							CHANNELS 3 Xrotation Yrotation Zrotation
							End Site
							{
								OFFSET 0.000000 10.009018 0.000000
							}
						}
					}
				}
			}
			JOINT LBackpack_Strap
			{
				OFFSET 15.223200 -7.719803 -6.610900
				CHANNELS 3 Xrotation Yrotation Zrotation
				End Site
				{
					OFFSET 0.000000 16.040596 0.000000
				}
			}
			JOINT RBackpack_Strap
			{
				OFFSET -15.223000 -7.719803 -6.610900
				CHANNELS 3 Xrotation Yrotation Zrotation
				End Site
				{
					OFFSET 0.000000 16.040596 0.000000
				}
			}
		}
	}
	JOINT BoyFacialAnim_Joint
	{
		OFFSET 1.000000 -82.208099 -1.550900
		CHANNELS 3 Xrotation Yrotation Zrotation
		End Site
		{
			OFFSET 0.000000 30.012791 0.000000
		}
	}
}
MOTION
Frames: 5
Frame Time: 0.033333
-0.667366 70.122398 -3.255013 10.575314 -59.912691 15.938902 -0.000001 -0.000001 -0.000000 -28.960603 3.759173 -2.609454 64.192078 -0.536600 -0.303771 -39.837584 -1.197363 2.836235 0.000000 -0.000001 0.000000 0.000000 -0.000001 0.000000 0.000001 -0.000001 -0.000000 -56.449482 -9.015111 -16.146878 106.273277 -9.366080 6.020422 16.940363 -5.081379 -13.967852 0.000000 -0.000002 0.000001 0.000000 -0.000002 0.000001 0.000001 0.000000 -0.000000 8.308838 5.635145 -10.081101 2.337156 1.855922 -1.456582 2.313355 1.896944 -1.443550 -2.008091 3.225978 -2.446001 -14.869627 11.536598 5.671517 -0.000000 -0.000001 0.000000 -0.000000 -0.000001 0.000000 -0.000000 -0.000001 0.000000 1.358068 -2.138387 -8.546900 -7.756131 -30.125468 -55.285139 -0.000002 -28.089276 0.000002 14.578031 -1.375505 -5.296924 -5.444669 -7.741883 16.081306 5.041538 12.969033 -0.176936 -0.000000 0.000003 0.000002 -0.541002 -0.899274 -16.260905 0.865837 3.347761 -28.994054 -0.000000 -0.000001 -0.000002 2.465628 5.768606 -33.766174 0.858752 3.334968 -28.872572 0.000001 -0.000001 -0.000002 3.771353 6.949036 -40.405295 1.114261 3.760473 -32.999735 -0.000000 -0.000000 -0.000002 24.497448 17.924472 -60.925492 0.321827 -1.974226 -18.027417 -0.000002 0.000001 0.000003 -0.000000 -0.000000 -0.000000 -0.746300 0.209232 3.744061 24.586051 35.802772 49.564507 0.000031 71.179198 -0.000038 -5.784718 -2.925015 -49.821695 -11.803548 -1.442963 -8.257828 4.637206 -8.634128 -0.225402 0.000002 -0.000001 -0.000000 1.503632 -4.373718 33.198855 2.301809 -5.171795 47.961694 -0.000000 0.000000 0.000002 3.827840 -6.616167 46.434655 2.263969 -5.137553 47.540456 0.000001 0.000001 0.000003 6.432178 -8.082399 55.251176 1.478054 -4.290822 38.000048 -0.000000 -0.000000 0.000004 4.834358 -6.661355 66.258729 1.638729 -4.488303 40.098975 -0.000004 -0.000004 0.000001 0.000000 -0.000004 -0.000000 -0.000000 -0.000002 0.000000 -0.000000 -0.000002 0.000000 -0.000000 -0.000002 0.000000 -0.000000 -0.000002 0.000000 -0.000000 -0.000002 0.000000 -0.000000 0.000003 -0.000000 -0.000000 -0.000002 0.000000 -0.000000 -0.000002 0.000000 -0.000000 0.000003 -0.000000 0.000002 -0.000000 -0.000000 0.000002 -0.000000 -0.000000 -0.000001 -0.000001 -0.000000 
-9.989573 71.035942 -3.251338 10.830337 -58.859264 13.214439 -0.000000 -0.000000 -0.000000 -19.672034 4.754462 5.555249 58.045837 -5.842362 1.892992 -39.985085 0.379547 -0.797843 -0.000000 0.000004 -0.000001 -0.000000 0.000004 -0.000000 -0.000003 0.000000 -0.000000 -62.862773 -3.534619 -12.427990 99.861812 -10.315393 4.809283 10.695965 -12.767631 -13.840379 0.000002 0.000000 -0.000000 0.000002 0.000000 -0.000000 -0.000001 0.000000 0.000000 7.677935 2.882943 -6.820439 2.314020 1.074411 -0.797766 2.300541 1.109445 -0.788873 -1.642730 3.500805 -1.896732 -14.285633 13.977554 4.729668 -0.000000 -0.000001 0.000000 -0.000000 -0.000001 0.000000 -0.000000 -0.000001 0.000000 1.710593 -5.692915 -9.361365 -11.943160 -36.621459 -56.238200 -0.000028 -40.583478 -0.000021 7.450709 4.242458 -0.587471 -5.574529 -8.265123 16.275058 4.707429 11.546620 0.093770 0.000001 -0.000002 0.000000 -0.583468 -1.093917 -16.030285 0.880088 3.373296 -29.236983 -0.000003 -0.000003 -0.000001 2.174698 5.318975 -34.113680 0.969245 3.527597 -30.718612 -0.000003 -0.000001 -0.000002 3.915746 7.041298 -41.246563 1.201051 3.890561 -34.300677 -0.000002 -0.000000 -0.000006 24.413328 17.925978 -60.816844 0.331025 -1.946172 -18.271781 -0.000004 -0.000000 -0.000000 0.000000 -0.000001 -0.000001 -0.553788 0.438431 4.566194 29.875640 31.826243 50.109352 0.000006 57.809738 0.000009 -0.816081 5.623045 -51.073467 -10.826701 -3.169528 -8.703334 4.637207 -8.634127 -0.225403 0.000002 -0.000001 -0.000001 2.805380 -6.028315 37.205827 2.404925 -5.262545 49.095598 -0.000002 -0.000002 -0.000002 5.281883 -7.585611 50.909515 2.458968 -5.308692 49.682267 0.000001 0.000000 -0.000000 7.327487 -8.304022 59.144801 1.652593 -4.504668 40.275949 -0.000000 0.000002 -0.000001 6.410281 -7.207737 69.654590 1.811221 -4.684869 42.255833 -0.000002 -0.000003 0.000001 -0.000000 -0.000001 0.000000 0.000001 0.000002 -0.000001 0.000001 0.000002 -0.000001 0.000001 0.000002 -0.000001 0.000001 0.000002 -0.000001 0.000001 0.000002 -0.000001 -0.000001 0.000001 -0.000000 0.000001 0.000002 -0.000001 0.000001 0.000002 -0.000001 -0.000001 0.000001 -0.000000 -0.000001 -0.000003 0.000000 -0.000001 -0.000003 0.000000 -0.000000 -0.000000 -0.000000 
-19.791296 73.304298 -3.032237 11.050450 -59.145012 10.052439 0.000001 -0.000002 0.000000 -10.152166 6.852093 12.612227 47.713451 -8.675636 5.377278 -29.447165 0.985701 -6.296222 0.000000 0.000001 -0.000001 0.000000 0.000001 -0.000000 -0.000001 0.000003 -0.000001 -63.554992 -2.224207 -11.349156 86.707168 -10.546995 3.777907 4.411822 -16.739834 -13.233031 0.000000 0.000001 0.000001 0.000000 0.000001 0.000001 0.000003 0.000000 -0.000000 6.836273 0.015516 -3.141000 2.179594 0.197777 -0.096843 2.176848 0.224355 -0.094648 -1.677732 4.076266 -1.449904 -13.316972 17.620766 4.164627 0.000000 -0.000004 0.000000 0.000000 -0.000004 0.000000 0.000000 -0.000004 0.000000 1.949010 -7.798157 -8.907985 -12.460388 -41.669116 -56.015986 -0.000005 -57.235472 -0.000026 0.803582 9.232753 6.624039 -5.460896 -8.266539 16.810513 4.582233 10.993247 0.197044 0.000000 -0.000001 0.000002 -0.669851 -1.168769 -17.145315 0.913999 3.433060 -29.808260 -0.000001 0.000002 -0.000001 1.870573 4.812117 -36.037891 1.108051 3.750913 -32.905133 -0.000001 -0.000001 -0.000002 4.191654 7.191354 -42.999914 1.309794 4.044970 -35.871880 -0.000002 -0.000000 -0.000002 24.433525 17.572646 -61.568602 0.351967 -1.883849 -18.815600 -0.000003 -0.000002 0.000005 0.000001 -0.000000 0.000000 -0.443769 1.850505 5.079628 36.467435 26.384247 50.053033 -0.000005 49.403721 0.000009 3.076043 11.775834 -50.774735 -10.388089 -3.786432 -9.853557 4.637207 -8.634127 -0.225401 0.000001 -0.000002 -0.000001 3.626243 -6.780453 40.721625 2.441374 -5.293773 49.491797 -0.000002 -0.000001 0.000005 6.139495 -7.845471 55.707385 2.549264 -5.383675 50.651348 0.000001 0.000001 -0.000004 7.568983 -8.143135 62.499598 1.767958 -4.636959 41.723522 -0.000000 0.000001 0.000001 7.392036 -7.497750 70.964422 1.975706 -4.859148 44.232838 -0.000001 -0.000001 -0.000005 -0.000000 -0.000001 0.000000 -0.000000 -0.000002 0.000000 -0.000000 -0.000002 0.000000 -0.000000 -0.000002 0.000000 -0.000000 -0.000002 0.000000 -0.000000 -0.000002 -0.000000 0.000001 -0.000001 -0.000000 -0.000000 -0.000002 0.000000 -0.000000 -0.000002 -0.000000 0.000001 -0.000001 -0.000000 -0.000000 -0.000000 -0.000001 -0.000000 -0.000000 -0.000001 0.000001 -0.000002 0.000000 
-29.812309 75.796967 -2.740106 11.982089 -60.689058 8.838350 -0.000000 0.000000 -0.000000 -3.810385 8.604031 16.203181 38.656063 -6.877815 7.238196 -5.431600 0.779463 -6.942827 0.000002 0.000000 0.000001 0.000002 0.000000 0.000001 -0.000000 0.000001 0.000000 -60.773985 -2.498647 -11.822566 68.550586 -10.459767 2.817137 5.491137 -11.016953 -8.483732 0.000004 0.000001 0.000001 0.000004 0.000001 0.000001 0.000000 -0.000000 0.000000 5.851931 -2.821956 -0.315733 1.896713 -0.680533 0.392129 1.903294 -0.662933 0.387381 -2.567329 4.976864 -1.233305 -12.182509 22.350583 4.035988 0.000000 -0.000000 0.000000 0.000000 -0.000000 0.000000 0.000000 -0.000000 0.000000 2.029931 -7.690493 -6.987721 -8.453031 -43.256537 -53.071359 -0.000243 -78.227004 -0.000249 -2.875522 10.602791 14.932146 -5.010744 -7.432650 17.778238 4.785723 11.886889 0.029720 0.000000 0.000001 -0.000000 -0.832247 -1.136584 -19.854385 0.980384 3.546214 -30.898840 -0.000002 -0.000001 -0.000005 1.562608 4.372801 -39.743631 1.298897 4.029909 -35.717258 -0.000000 -0.000001 0.000002 4.767478 7.525334 -45.817387 1.444581 4.224657 -37.741300 -0.000001 -0.000001 -0.000000 24.483812 16.771837 -63.323592 0.383909 -1.792189 -19.619054 0.000001 0.000003 0.000000 -0.000002 0.000000 0.000000 -0.437119 4.978717 5.134149 43.824546 19.530842 50.199869 0.000011 47.425289 -0.000025 3.927375 15.368604 -48.046371 -10.624475 -3.008662 -11.384351 4.637205 -8.634128 -0.225401 -0.000002 0.000000 -0.000001 3.560163 -6.552634 42.929788 2.365319 -5.228116 48.662359 -0.000001 0.000000 -0.000002 6.162783 -7.550516 60.171357 2.437975 -5.290878 49.454975 0.000000 0.000001 -0.000005 6.849913 -7.640581 64.541470 1.758979 -4.626901 41.612326 0.000002 0.000000 0.000004 7.737256 -7.746607 68.860799 2.120622 -5.003150 45.918590 -0.000000 -0.000001 -0.000002 -0.000002 -0.000000 -0.000000 0.000000 0.000002 -0.000001 0.000000 0.000002 -0.000001 0.000000 0.000002 -0.000001 0.000000 0.000002 -0.000001 0.000000 0.000002 -0.000001 0.000001 0.000002 -0.000000 0.000000 0.000002 -0.000001 0.000000 0.000002 -0.000001 0.000001 0.000002 -0.000000 0.000001 0.000001 -0.000000 0.000001 0.000001 -0.000000 -0.000000 0.000000 -0.000000 
-38.974815 77.056831 -2.464076 14.239825 -63.002416 9.797380 0.000000 -0.000001 -0.000000 -1.128920 8.604121 17.834993 30.381699 4.190556 5.691447 30.944080 -1.038680 -4.233035 -0.000001 -0.000002 0.000002 -0.000001 -0.000002 0.000002 -0.000002 -0.000001 0.000000 -56.514416 -2.429717 -10.919521 48.681053 -10.055141 0.311928 9.162714 -3.935234 4.073576 0.000000 -0.000000 0.000000 0.000000 -0.000000 0.000000 -0.000000 0.000001 -0.000000 5.034196 -3.767569 1.168656 1.538814 -1.007752 0.357285 1.547977 -0.995416 0.351862 -3.799608 5.668188 -1.265970 -11.530821 25.594329 4.096863 0.000000 0.000002 0.000000 0.000000 0.000002 0.000000 0.000000 0.000002 0.000000 1.994861 -7.249788 -5.963968 -5.060718 -41.770493 -50.042559 -0.002958 -94.718741 -0.002916 -2.495490 0.983642 21.940454 -4.668439 -6.625324 18.353369 5.097608 13.200642 -0.221769 0.000002 0.000001 0.000002 -0.959899 -1.416136 -20.253347 1.033554 3.633410 -31.748003 -0.000001 0.000001 0.000000 1.405685 4.196289 -40.938381 1.451959 4.234119 -37.841085 0.000003 -0.000002 0.000002 5.402785 8.011138 -46.981562 1.519462 4.319391 -38.746396 -0.000000 0.000001 0.000001 24.314609 16.438542 -63.848082 0.393622 -1.765181 -19.856579 0.000001 -0.000006 0.000000 -0.000001 0.000003 0.000004 -0.219281 8.596763 6.471657 48.957601 14.173760 51.484299 0.000010 46.512215 -0.000015 0.740490 16.484359 -44.819998 -10.853764 -2.303331 -12.339678 4.637206 -8.634122 -0.225402 0.000001 0.000002 -0.000001 3.207588 -6.155243 43.383832 2.264232 -5.137804 47.543410 -0.000000 -0.000000 -0.000000 6.224729 -7.416359 63.127778 2.233011 -5.109181 47.193756 -0.000001 -0.000001 0.000001 6.107743 -7.250469 65.449502 1.677399 -4.533696 40.590861 0.000001 -0.000001 0.000007 8.434213 -8.239411 66.168462 2.202426 -5.080798 46.849439 0.000000 0.000000 0.000002 -0.000001 -0.000002 -0.000000 0.000000 0.000001 0.000000 0.000000 0.000001 0.000000 0.000000 0.000001 0.000000 0.000000 0.000001 0.000000 0.000000 0.000001 -0.000000 0.000000 0.000003 -0.000001 0.000000 0.000001 0.000000 0.000000 0.000001 -0.000000 0.000000 0.000003 -0.000001 -0.000000 0.000000 0.000000 -0.000000 0.000000 0.000000 0.000000 -0.000001 -0.000000 
